<svg id="Layer_1" data-name="Layer 1" xmlns="http://www.w3.org/2000/svg" xmlns:xlink="http://www.w3.org/1999/xlink" viewBox="0 0 370 219.5"><defs><style>.cls-1{fill:none;}.cls-2{clip-path:url(#clip-path);}.cls-3{fill:#01a58a;}.cls-4{fill:#00AF92;}</style><clipPath id="clip-path"><rect class="cls-1" width="370" height="219.5"/></clipPath></defs><g class="cls-2"><path class="cls-3" d="M0-3.52V202.17s208.9,62.63,370-50.33V-3.52C370-15.93,361-26,349.9-26H20.1C9-26,0-15.93,0-3.52Z"/><path class="cls-4" d="M0-3.52V154.85H105.6a147.05,147.05,0,0,1,27.1,2.47c33.5,6.26,119.3,22,134.3,23.26,18.7,1.45,57.2,1.45,103-29.42V-3.52C370-15.93,361-26,349.9-26H20.1C9-26,0-15.93,0-3.52Z"/></g></svg>